<svg width='600' height='600' viewBox='0 0 600 600' xmlns='http://www.w3.org/2000/svg' xmlns:xlink='http://www.w3.org/1999/xlink'><style>.lnft,.lnrt{stroke:#000;stroke-linecap:round}.lnft{fill:gray;stroke-width:8;}.lnrt{fill:none;stroke-width:7;stroke-linejoin:bezel}.th{stroke-width:12}.tn{stroke-width:4}.wlrt{stroke:#fff;stroke-width:3}text{font-family:'Comic Sans MS','Comic Sans','Chalkboard SE','Comic Neue',cursive;font-size:12pt}</style><defs></defs><rect width='100%' height='100%' fill='#c0caff'/><g id='chub'><ellipse cx='300' cy='460' rx='160' ry='50' fill='#fff'/><path fill='#fff' d='M140 140h320v320H140z'/><ellipse cx='300' cy='140' rx='160' ry='50' fill='#FAF6F6'/><g id='face' transform='rotate(-5 3422.335 -2819.49)'><path d="m62-146 4-58-40-20" class="lnrt"/><circle cx="26" cy="-224" r="14"/><path id="eye" d="M299.348 296.348a18.83 18.83 0 0 1-20.378-17.1 18.835 18.835 0 0 1 17.098-20.382 11.605 11.605 0 0 1 12.562 10.545 11.605 11.605 0 0 1-10.546 12.557 4.375 4.375 0 0 1-.762-8.716 2.85 2.85 0 0 0-.496-5.669 10.075 10.075 0 0 0-9.135 10.903c.484 5.529 5.375 9.628 10.899 9.145a17.3 17.3 0 0 0 15.708-18.72 17.3 17.3 0 0 0-18.725-15.708 24.525 24.525 0 0 0-22.272 26.542 4.375 4.375 0 0 1-8.716.762 33.285 33.285 0 0 1 30.23-36.021 26.055 26.055 0 0 1 28.2 23.662 26.05 26.05 0 0 1-23.662 28.2z" transform="translate(-286,-260)"/><use xlink:href="#eye" transform="rotate(180,70,10)"/><path d="M40,100 a1,1 0 0,0 60,0"/><path d="m15 6 10 12a12.8 12.8 0 1 1-20 0L15 6z" fill="#8af" transform="rotate(5 -432.172 -87.711)"/></g></g></svg>