<svg width="600" height="600" viewBox="0 0 600 600" xmlns="http://www.w3.org/2000/svg" xmlns:xlink="http://www.w3.org/1999/xlink">
  <path fill="#fd9644" d="M193.248 69.51C185.95 54.1634 177.44 39.4234 167.798 25.43L164.688 20.96C160.859 15.4049 155.841 10.7724 149.998 7.3994C144.155 4.02636 137.633 1.99743 130.908 1.46004L125.448 1.02004C108.508 -0.340012 91.4873 -0.340012 74.5479 1.02004L69.0879 1.46004C62.3625 1.99743 55.8413 4.02636 49.9981 7.3994C44.155 10.7724 39.1367 15.4049 35.3079 20.96L32.1979 25.47C22.5561 39.4634 14.0458 54.2034 6.74789 69.55L4.39789 74.49C1.50233 80.5829 0 87.2441 0 93.99C0 100.736 1.50233 107.397 4.39789 113.49L6.74789 118.43C14.0458 133.777 22.5561 148.517 32.1979 162.51L35.3079 167.02C39.1367 172.575 44.155 177.208 49.9981 180.581C55.8413 183.954 62.3625 185.983 69.0879 186.52L74.5479 186.96C91.4873 188.32 108.508 188.32 125.448 186.96L130.908 186.52C137.638 185.976 144.163 183.938 150.006 180.554C155.85 177.17 160.865 172.526 164.688 166.96L167.798 162.45C177.44 148.457 185.95 133.717 193.248 118.37L195.598 113.43C198.493 107.337 199.996 100.676 199.996 93.93C199.996 87.1841 198.493 80.5229 195.598 74.43L193.248 69.51Z" transform="scale(3),translate(0,6)"/>
  <ellipse cx="300" cy="460" rx="160" ry="50" fill="white"/>
  <rect x="140" y="140" width="320" height="320" fill="white"/>
  <ellipse cx="300" cy="140" rx="160" ry="50" fill="#FAF6F6"/>
  <g id="face" transform-origin="center center" transform="rotate(-5),translate(260,284)">
    <path d="M16 -112a1 1 0 0 1 100 0"/><path d="M17-112h99" stroke="#000" stroke-width="2"/><path d="M16 -112a2.5 1.5 18 1 0 100 0"/><path d="M16-112a50 6.25 0 1 0 100 0" stroke="#555" stroke-width="2" stroke-linecap="round"/><text x="52" y="-117" fill="#ddd" font-family="Comic Sans MS,Chalkboard SE,Comic Sans,sans-serif">chub</text>
    <path id="swirl" d="M299.348 296.348a18.83 18.83 0 0 1-20.378-17.1 18.835 18.835 0 0 1 17.098-20.382 11.605 11.605 0 0 1 12.562 10.545 11.605 11.605 0 0 1-10.546 12.557 4.375 4.375 0 0 1-.762-8.716 2.85 2.85 0 0 0-.496-5.669 10.075 10.075 0 0 0-9.135 10.903c.484 5.529 5.375 9.628 10.899 9.145a17.3 17.3 0 0 0 15.708-18.72 17.3 17.3 0 0 0-18.725-15.708 24.525 24.525 0 0 0-22.272 26.542 4.375 4.375 0 0 1-8.716.762 33.285 33.285 0 0 1 30.23-36.021 26.055 26.055 0 0 1 28.2 23.662 26.05 26.05 0 0 1-23.662 28.2z" transform="translate(-286,-260)"/><use xlink:href="#swirl" transform="rotate(180,70,10)"/>
	<path d="M50,0 a1,0.9 0 0,0 60,0" class="lnrt" transform="translate(-10,100)"/>
  </g>
</svg>